# xmcd
#
# Track frame offsets: 
#        150
#        14423
#        28100
#        41808
#        54578
#        68535
#        79615
#        89668
#        101163
#        119930
#        130455
#        153710
#        172048
#        186045
#        210050
#        227848
#        241223
#        254200
#        263878
#        274963
#        286596
#        296704
#
# Disc length: 4091 seconds
#
# Revision: 0
# Processed by: cddbd v1.4PL0 Copyright (c) Steve Scherf et al.
# Submitted via: ExactAudioCopy v0.90a11
#
DISCID=510ff916
DTITLE=John Lee Hooker - The Very Best Of
DYEAR=1900
DGENRE=
TTITLE0=Boogie Chillen'
TTITLE1=Crawlin' King Snake
TTITLE2=Hobo Blues
TTITLE3=Huckle Up Baby
TTITLE4=I'm In The Mood
TTITLE5=I need Some Money
TTITLE6=Dimples
TTITLE7=Boom Boom
TTITLE8=Shake It Baby
TTITLE9=Big Legs, Tight Skirt
TTITLE10=It Serves You Right To Suffer
TTITLE11=You Know, I Know
TTITLE12=One Bourbon, One Scotch, One Beer
TTITLE13=I'm Bad Like Jesse James
TTITLE14=Burning Hell
TTITLE15=Terraplane Blues
TTITLE16=I'm So Excited
TTITLE17=Onions
TTITLE18=No Shoes
TTITLE19=Little Wheel
TTITLE20=Want-Ad Blues
TTITLE21=Maudie
EXTD=
EXTT0=
EXTT1=
EXTT2=
EXTT3=
EXTT4=
EXTT5=
EXTT6=
EXTT7=
EXTT8=
EXTT9=
EXTT10=
EXTT11=
EXTT12=
EXTT13=
EXTT14=
EXTT15=
EXTT16=
EXTT17=
EXTT18=
EXTT19=
EXTT20=
EXTT21=
PLAYORDER=
